<?xml version="1.0" encoding="UTF-8" standalone="no"?>
<svg
   xmlns:dc="http://purl.org/dc/elements/1.1/"
   xmlns:cc="http://creativecommons.org/ns#"
   xmlns:rdf="http://www.w3.org/1999/02/22-rdf-syntax-ns#"
   xmlns:svg="http://www.w3.org/2000/svg"
   xmlns="http://www.w3.org/2000/svg"
   viewBox="0 0 537.5 240"
   height="240"
   width="537.5"
   xml:space="preserve"
   version="1.1"
   id="svg2"><metadata
     id="metadata8"><rdf:RDF><cc:Work
         rdf:about=""><dc:format>image/svg+xml</dc:format><dc:type
           rdf:resource="http://purl.org/dc/dcmitype/StillImage" /></cc:Work></rdf:RDF></metadata><defs
     id="defs6"><clipPath
       id="clipPath16"
       clipPathUnits="userSpaceOnUse"><path
         id="path18"
         d="M 0,192 430,192 430,0 0,0 0,192 Z" /></clipPath></defs><g
     transform="matrix(1.25,0,0,-1.25,0,240)"
     id="g10"><g
       id="g12"><g
         clip-path="url(#clipPath16)"
         id="g14"><g
           transform="translate(187.3975,118.3521)"
           id="g20"><path
             id="path22"
             style="fill:#ee343b;fill-opacity:1;fill-rule:nonzero;stroke:none"
             d="m 0,0 -4.917,0 c -0.195,-1.65 -0.388,-3.101 -0.578,-4.354 -0.19,-1.254 -0.38,-2.353 -0.569,-3.297 -0.19,-0.944 -0.383,-1.758 -0.578,-2.442 -0.195,-0.684 -0.394,-1.276 -0.594,-1.775 -0.201,-0.499 -0.41,-0.927 -0.627,-1.286 -0.218,-0.358 -0.44,-0.683 -0.668,-0.976 L 0,-14.13 0,0 Z m 6.854,-22.58 c 0,-0.108 -0.028,-0.2 -0.082,-0.276 -0.054,-0.076 -0.152,-0.139 -0.293,-0.187 -0.141,-0.049 -0.331,-0.087 -0.57,-0.115 -0.239,-0.026 -0.548,-0.04 -0.928,-0.04 -0.369,0 -0.67,0.014 -0.903,0.04 -0.234,0.028 -0.423,0.066 -0.57,0.115 -0.147,0.048 -0.25,0.111 -0.309,0.187 -0.06,0.076 -0.09,0.168 -0.09,0.276 l 0,4.966 -14.016,0 0,-4.966 c 0,-0.108 -0.031,-0.2 -0.09,-0.276 -0.06,-0.076 -0.163,-0.139 -0.309,-0.187 -0.147,-0.049 -0.34,-0.087 -0.578,-0.115 -0.239,-0.026 -0.543,-0.04 -0.912,-0.04 -0.369,0 -0.673,0.014 -0.912,0.04 -0.238,0.028 -0.431,0.066 -0.577,0.115 -0.147,0.048 -0.247,0.111 -0.301,0.187 -0.055,0.076 -0.082,0.168 -0.082,0.276 l 0,7.57 c -0.022,0.315 0.035,0.54 0.171,0.676 0.136,0.136 0.339,0.204 0.61,0.204 l 0.977,0 c 0.261,0.368 0.508,0.748 0.741,1.139 0.233,0.391 0.459,0.855 0.675,1.392 0.218,0.537 0.432,1.178 0.643,1.921 0.212,0.743 0.421,1.652 0.627,2.727 0.206,1.074 0.415,2.347 0.627,3.817 0.212,1.471 0.431,3.199 0.659,5.185 0.065,0.489 0.19,0.844 0.375,1.067 0.184,0.222 0.466,0.333 0.846,0.333 l 10.761,0 C 3.424,3.451 3.722,3.34 3.939,3.118 4.156,2.895 4.265,2.556 4.265,2.1 l 0,-16.23 1.791,0 c 0.293,0 0.499,-0.079 0.618,-0.237 0.12,-0.157 0.18,-0.377 0.18,-0.659 l 0,-7.554 z" /></g><g
           transform="translate(211.0352,111.2871)"
           id="g24"><path
             id="path26"
             style="fill:#ee343b;fill-opacity:1;fill-rule:nonzero;stroke:none"
             d="m 0,0 c 0,1.107 -0.087,2.113 -0.26,3.02 -0.174,0.906 -0.47,1.682 -0.887,2.328 -0.418,0.645 -0.975,1.145 -1.669,1.497 -0.695,0.353 -1.563,0.53 -2.605,0.53 -1.053,0 -1.932,-0.199 -2.637,-0.595 -0.706,-0.396 -1.275,-0.925 -1.71,-1.587 -0.434,-0.662 -0.74,-1.436 -0.92,-2.32 -0.178,-0.885 -0.268,-1.821 -0.268,-2.808 0,-1.15 0.087,-2.184 0.261,-3.101 0.173,-0.918 0.466,-1.702 0.879,-2.353 0.412,-0.651 0.965,-1.148 1.66,-1.489 0.695,-0.342 1.568,-0.513 2.621,-0.513 1.053,0 1.932,0.195 2.638,0.586 0.705,0.39 1.274,0.922 1.709,1.596 0.434,0.672 0.74,1.457 0.919,2.352 C -0.089,-1.962 0,-1.01 0,0 m 4.493,0.228 c 0,-1.748 -0.217,-3.311 -0.651,-4.689 -0.434,-1.378 -1.08,-2.547 -1.937,-3.508 -0.858,-0.961 -1.919,-1.693 -3.183,-2.198 -1.264,-0.504 -2.727,-0.757 -4.387,-0.757 -1.639,0 -3.069,0.215 -4.29,0.643 -1.221,0.429 -2.238,1.083 -3.052,1.962 -0.814,0.879 -1.425,1.997 -1.832,3.354 -0.407,1.356 -0.61,2.963 -0.61,4.818 0,1.704 0.217,3.237 0.651,4.599 0.434,1.362 1.08,2.521 1.937,3.476 0.858,0.955 1.919,1.687 3.183,2.197 1.264,0.511 2.732,0.766 4.404,0.766 1.595,0 3.003,-0.212 4.224,-0.635 C 0.171,9.833 1.191,9.181 2.011,8.302 2.83,7.423 3.449,6.313 3.867,4.973 4.284,3.633 4.493,2.051 4.493,0.228" /></g><g
           transform="translate(233.6963,103.9287)"
           id="g28"><path
             id="path30"
             style="fill:#ee343b;fill-opacity:1;fill-rule:nonzero;stroke:none"
             d="m 0,0 c 0,-0.271 -0.009,-0.502 -0.024,-0.692 -0.017,-0.19 -0.041,-0.353 -0.074,-0.488 -0.033,-0.136 -0.076,-0.253 -0.131,-0.35 -0.053,-0.098 -0.14,-0.21 -0.259,-0.334 -0.12,-0.125 -0.351,-0.285 -0.693,-0.48 -0.341,-0.196 -0.759,-0.383 -1.253,-0.562 -0.494,-0.179 -1.058,-0.328 -1.693,-0.448 -0.635,-0.119 -1.321,-0.179 -2.06,-0.179 -1.443,0 -2.746,0.223 -3.907,0.668 -1.161,0.445 -2.148,1.109 -2.963,1.994 -0.813,0.884 -1.437,1.989 -1.872,3.313 -0.433,1.324 -0.651,2.865 -0.651,4.623 0,1.791 0.239,3.381 0.717,4.77 0.477,1.389 1.144,2.556 2.002,3.5 0.857,0.944 1.885,1.661 3.085,2.149 1.199,0.488 2.52,0.733 3.964,0.733 0.586,0 1.15,-0.049 1.693,-0.147 0.543,-0.098 1.045,-0.225 1.506,-0.383 0.461,-0.157 0.877,-0.339 1.245,-0.545 0.369,-0.206 0.627,-0.382 0.773,-0.529 0.147,-0.147 0.247,-0.269 0.302,-0.366 0.054,-0.098 0.098,-0.223 0.13,-0.374 0.032,-0.153 0.057,-0.332 0.073,-0.538 0.017,-0.206 0.025,-0.461 0.025,-0.765 0,-0.326 -0.011,-0.602 -0.033,-0.83 -0.022,-0.228 -0.059,-0.413 -0.114,-0.554 -0.055,-0.141 -0.119,-0.244 -0.195,-0.309 -0.076,-0.065 -0.163,-0.098 -0.261,-0.098 -0.162,0 -0.369,0.095 -0.618,0.285 -0.25,0.19 -0.572,0.401 -0.969,0.635 -0.396,0.233 -0.868,0.445 -1.416,0.635 -0.549,0.189 -1.202,0.285 -1.962,0.285 -0.836,0 -1.582,-0.171 -2.238,-0.513 -0.657,-0.342 -1.216,-0.83 -1.677,-1.465 -0.462,-0.635 -0.811,-1.403 -1.05,-2.304 -0.239,-0.9 -0.358,-1.915 -0.358,-3.044 0,-1.237 0.127,-2.309 0.383,-3.215 0.255,-0.907 0.618,-1.653 1.09,-2.239 0.472,-0.586 1.042,-1.023 1.71,-1.31 0.667,-0.288 1.419,-0.431 2.254,-0.431 0.759,0 1.416,0.089 1.97,0.268 0.553,0.179 1.028,0.377 1.424,0.594 0.396,0.217 0.722,0.413 0.978,0.586 0.254,0.174 0.452,0.261 0.593,0.261 0.109,0 0.196,-0.022 0.261,-0.065 0.064,-0.044 0.119,-0.131 0.162,-0.261 0.044,-0.13 0.076,-0.312 0.098,-0.545 C -0.011,0.703 0,0.391 0,0" /></g><g
           transform="translate(250.79,120.0454)"
           id="g32"><path
             id="path34"
             style="fill:#ee343b;fill-opacity:1;fill-rule:nonzero;stroke:none"
             d="m 0,0 c 0,-0.315 -0.015,-0.583 -0.041,-0.806 -0.027,-0.223 -0.068,-0.402 -0.122,-0.537 -0.055,-0.136 -0.122,-0.236 -0.204,-0.302 -0.081,-0.064 -0.171,-0.097 -0.269,-0.097 l -5.274,0 0,-16.98 c 0,-0.108 -0.035,-0.206 -0.106,-0.293 -0.071,-0.087 -0.187,-0.157 -0.35,-0.211 -0.162,-0.055 -0.382,-0.098 -0.659,-0.13 -0.277,-0.033 -0.621,-0.049 -1.034,-0.049 -0.413,0 -0.756,0.016 -1.034,0.049 -0.276,0.032 -0.496,0.075 -0.659,0.13 -0.163,0.054 -0.279,0.124 -0.35,0.211 -0.071,0.087 -0.106,0.185 -0.106,0.293 l 0,16.98 -5.274,0 c -0.109,0 -0.202,0.033 -0.277,0.097 -0.076,0.066 -0.141,0.166 -0.195,0.302 -0.055,0.135 -0.096,0.314 -0.122,0.537 -0.028,0.223 -0.041,0.491 -0.041,0.806 0,0.325 0.013,0.602 0.041,0.83 0.026,0.228 0.067,0.41 0.122,0.545 0.054,0.136 0.119,0.234 0.195,0.293 0.075,0.06 0.168,0.09 0.277,0.09 l 14.846,0 c 0.098,0 0.188,-0.03 0.269,-0.09 C -0.285,1.609 -0.218,1.511 -0.163,1.375 -0.109,1.24 -0.068,1.058 -0.041,0.83 -0.015,0.602 0,0.325 0,0" /></g><g
           transform="translate(266.9883,111.2871)"
           id="g36"><path
             id="path38"
             style="fill:#ee343b;fill-opacity:1;fill-rule:nonzero;stroke:none"
             d="m 0,0 c 0,1.107 -0.087,2.113 -0.261,3.02 -0.174,0.906 -0.469,1.682 -0.887,2.328 -0.418,0.645 -0.974,1.145 -1.668,1.497 -0.696,0.353 -1.564,0.53 -2.606,0.53 -1.053,0 -1.932,-0.199 -2.637,-0.595 -0.706,-0.396 -1.275,-0.925 -1.71,-1.587 -0.433,-0.662 -0.74,-1.436 -0.919,-2.32 -0.179,-0.885 -0.268,-1.821 -0.268,-2.808 0,-1.15 0.086,-2.184 0.26,-3.101 0.174,-0.918 0.467,-1.702 0.879,-2.353 0.413,-0.651 0.965,-1.148 1.661,-1.489 0.694,-0.342 1.568,-0.513 2.621,-0.513 1.053,0 1.931,0.195 2.637,0.586 0.706,0.39 1.275,0.922 1.71,1.596 0.433,0.672 0.74,1.457 0.919,2.352 C -0.09,-1.962 0,-1.01 0,0 m 4.493,0.228 c 0,-1.748 -0.218,-3.311 -0.651,-4.689 -0.435,-1.378 -1.08,-2.547 -1.938,-3.508 -0.857,-0.961 -1.918,-1.693 -3.182,-2.198 -1.265,-0.504 -2.727,-0.757 -4.388,-0.757 -1.639,0 -3.068,0.215 -4.289,0.643 -1.221,0.429 -2.238,1.083 -3.053,1.962 -0.813,0.879 -1.425,1.997 -1.831,3.354 -0.407,1.356 -0.61,2.963 -0.61,4.818 0,1.704 0.217,3.237 0.65,4.599 0.435,1.362 1.08,2.521 1.938,3.476 0.857,0.955 1.918,1.687 3.182,2.197 1.265,0.511 2.733,0.766 4.404,0.766 1.595,0 3.004,-0.212 4.224,-0.635 C 0.171,9.833 1.19,9.181 2.01,8.302 2.829,7.423 3.448,6.313 3.866,4.973 4.283,3.633 4.493,2.051 4.493,0.228" /></g><g
           transform="translate(289.7305,127.4521)"
           id="g40"><path
             id="path42"
             style="fill:#ee343b;fill-opacity:1;fill-rule:nonzero;stroke:none"
             d="m 0,0 c 0,-0.597 -0.104,-1.169 -0.31,-1.717 -0.206,-0.549 -0.54,-1.032 -1.001,-1.449 -0.461,-0.418 -1.069,-0.752 -1.823,-1.001 -0.755,-0.25 -1.679,-0.375 -2.776,-0.375 -1.064,0 -1.97,0.114 -2.719,0.342 -0.748,0.228 -1.359,0.54 -1.831,0.936 -0.472,0.396 -0.816,0.874 -1.033,1.433 -0.218,0.559 -0.326,1.169 -0.326,1.831 0,0.163 0.03,0.296 0.09,0.399 0.059,0.103 0.16,0.187 0.3,0.252 0.141,0.065 0.334,0.112 0.578,0.139 0.245,0.027 0.551,0.041 0.92,0.041 0.347,0 0.635,-0.017 0.863,-0.049 0.228,-0.033 0.401,-0.082 0.521,-0.147 0.119,-0.065 0.203,-0.149 0.252,-0.252 0.049,-0.104 0.073,-0.226 0.073,-0.366 0,-0.261 0.052,-0.505 0.156,-0.733 0.102,-0.228 0.254,-0.426 0.455,-0.594 0.201,-0.169 0.448,-0.307 0.741,-0.416 0.293,-0.108 0.618,-0.162 0.976,-0.162 0.348,0 0.663,0.051 0.945,0.155 0.282,0.103 0.523,0.238 0.724,0.406 0.201,0.169 0.353,0.369 0.455,0.603 0.104,0.233 0.156,0.491 0.156,0.773 0,0.13 0.021,0.244 0.065,0.342 0.043,0.098 0.127,0.179 0.252,0.244 0.125,0.065 0.293,0.114 0.505,0.147 0.211,0.032 0.479,0.049 0.806,0.049 0.39,0 0.714,-0.014 0.968,-0.041 C -0.763,0.763 -0.56,0.716 -0.407,0.651 -0.256,0.586 -0.149,0.502 -0.09,0.399 -0.03,0.296 0,0.163 0,0 m 2.49,-26.161 c 0,-0.109 -0.035,-0.203 -0.105,-0.285 -0.072,-0.081 -0.188,-0.149 -0.351,-0.203 -0.162,-0.055 -0.382,-0.095 -0.659,-0.122 -0.276,-0.027 -0.621,-0.041 -1.033,-0.041 -0.413,0 -0.757,0.014 -1.034,0.041 -0.277,0.027 -0.495,0.067 -0.652,0.122 -0.157,0.054 -0.268,0.122 -0.333,0.203 -0.065,0.082 -0.097,0.176 -0.097,0.285 l 0,11.103 c 0,0.423 0.004,0.838 0.015,1.245 0.011,0.407 0.028,0.768 0.049,1.083 l -0.032,0 c -0.087,-0.152 -0.191,-0.329 -0.31,-0.529 -0.119,-0.201 -0.247,-0.413 -0.383,-0.635 -0.135,-0.223 -0.279,-0.451 -0.43,-0.684 -0.153,-0.234 -0.305,-0.459 -0.456,-0.675 l -7.326,-10.924 c -0.087,-0.12 -0.176,-0.223 -0.269,-0.309 -0.092,-0.087 -0.211,-0.155 -0.357,-0.204 -0.147,-0.049 -0.327,-0.081 -0.539,-0.098 -0.21,-0.016 -0.485,-0.024 -0.821,-0.024 -0.424,0 -0.765,0.014 -1.026,0.041 -0.26,0.027 -0.464,0.067 -0.611,0.122 -0.146,0.054 -0.247,0.125 -0.3,0.212 -0.055,0.086 -0.082,0.189 -0.082,0.309 l 0,19.926 c 0,0.108 0.035,0.203 0.106,0.285 0.07,0.081 0.19,0.149 0.358,0.203 0.168,0.054 0.388,0.095 0.66,0.122 0.27,0.027 0.612,0.041 1.025,0.041 0.423,0 0.771,-0.014 1.042,-0.041 0.272,-0.027 0.488,-0.068 0.651,-0.122 0.163,-0.054 0.277,-0.122 0.342,-0.203 0.065,-0.082 0.098,-0.177 0.098,-0.285 l 0,-11.168 c 0,-0.347 -0.006,-0.716 -0.017,-1.107 -0.01,-0.391 -0.027,-0.771 -0.049,-1.14 l 0.033,0 c 0.184,0.326 0.418,0.717 0.7,1.173 0.282,0.455 0.575,0.901 0.879,1.335 l 7.326,10.923 c 0.076,0.108 0.157,0.204 0.244,0.285 0.087,0.081 0.203,0.149 0.35,0.203 0.146,0.054 0.328,0.093 0.546,0.115 0.216,0.021 0.493,0.032 0.83,0.032 0.412,0 0.746,-0.014 1.001,-0.041 0.255,-0.027 0.459,-0.068 0.61,-0.122 0.152,-0.054 0.258,-0.122 0.317,-0.203 0.06,-0.082 0.09,-0.182 0.09,-0.302 l 0,-19.942 z" /></g><g
           transform="translate(313.2529,101.3237)"
           id="g44"><path
             id="path46"
             style="fill:#ee343b;fill-opacity:1;fill-rule:nonzero;stroke:none"
             d="m 0,0 c 0,-0.108 -0.035,-0.206 -0.105,-0.293 -0.071,-0.087 -0.188,-0.157 -0.35,-0.211 -0.163,-0.055 -0.381,-0.098 -0.651,-0.131 -0.272,-0.032 -0.614,-0.049 -1.026,-0.049 -0.424,0 -0.773,0.017 -1.051,0.049 -0.276,0.033 -0.493,0.076 -0.65,0.131 -0.158,0.054 -0.271,0.124 -0.343,0.211 -0.07,0.087 -0.105,0.185 -0.105,0.293 l 0,8.514 -7.879,0 0,-8.514 c 0,-0.108 -0.033,-0.206 -0.098,-0.293 -0.065,-0.087 -0.18,-0.157 -0.342,-0.211 -0.163,-0.055 -0.379,-0.098 -0.651,-0.131 -0.271,-0.032 -0.619,-0.049 -1.042,-0.049 -0.413,0 -0.757,0.017 -1.034,0.049 -0.277,0.033 -0.496,0.076 -0.659,0.131 -0.162,0.054 -0.28,0.124 -0.35,0.211 -0.071,0.087 -0.106,0.185 -0.106,0.293 l 0,19.894 c 0,0.108 0.035,0.206 0.106,0.293 0.07,0.086 0.188,0.157 0.35,0.211 0.163,0.055 0.382,0.098 0.659,0.13 0.277,0.033 0.621,0.049 1.034,0.049 0.423,0 0.771,-0.016 1.042,-0.049 0.272,-0.032 0.488,-0.075 0.651,-0.13 0.162,-0.054 0.277,-0.125 0.342,-0.211 0.065,-0.087 0.098,-0.185 0.098,-0.293 l 0,-7.733 7.879,0 0,7.733 c 0,0.108 0.035,0.206 0.105,0.293 0.072,0.086 0.185,0.157 0.343,0.211 0.157,0.055 0.374,0.098 0.65,0.13 0.278,0.033 0.627,0.049 1.051,0.049 0.412,0 0.754,-0.016 1.026,-0.049 0.27,-0.032 0.488,-0.075 0.651,-0.13 0.162,-0.054 0.279,-0.125 0.35,-0.211 C -0.035,20.1 0,20.002 0,19.894 L 0,0 Z" /></g><g
           transform="translate(339.8701,101.2915)"
           id="g48"><path
             id="path50"
             style="fill:#ee343b;fill-opacity:1;fill-rule:nonzero;stroke:none"
             d="m 0,0 c 0,-0.109 -0.035,-0.204 -0.105,-0.285 -0.072,-0.082 -0.188,-0.15 -0.351,-0.204 -0.162,-0.054 -0.382,-0.094 -0.659,-0.122 -0.277,-0.027 -0.621,-0.04 -1.033,-0.04 -0.414,0 -0.755,0.013 -1.026,0.04 -0.271,0.028 -0.491,0.068 -0.66,0.122 -0.168,0.054 -0.287,0.122 -0.357,0.204 -0.072,0.081 -0.107,0.176 -0.107,0.285 l 0,19.958 c 0,0.109 0.035,0.204 0.107,0.285 0.07,0.082 0.189,0.15 0.357,0.204 0.169,0.054 0.391,0.095 0.668,0.122 0.276,0.027 0.615,0.04 1.018,0.04 0.412,0 0.756,-0.013 1.033,-0.04 0.277,-0.027 0.497,-0.068 0.659,-0.122 0.163,-0.054 0.279,-0.122 0.351,-0.204 C -0.035,20.162 0,20.067 0,19.958 L 0,0 Z m -11.249,6.04 c 0,0.521 -0.076,0.987 -0.228,1.399 -0.152,0.413 -0.385,0.766 -0.7,1.059 -0.315,0.293 -0.717,0.521 -1.205,0.684 -0.488,0.162 -1.21,0.244 -2.165,0.244 l -2.197,0 0,-6.691 2.263,0 c 0.998,0 1.75,0.1 2.254,0.301 0.504,0.201 0.898,0.461 1.18,0.781 0.282,0.32 0.486,0.676 0.61,1.067 0.125,0.39 0.188,0.776 0.188,1.156 m 4.395,0.357 C -6.854,5.399 -7.008,4.485 -7.317,3.654 -7.627,2.824 -8.112,2.1 -8.774,1.481 -9.437,0.863 -10.302,0.369 -11.371,0 c -1.069,-0.369 -2.526,-0.554 -4.371,-0.554 l -4.965,0 c -0.185,0 -0.355,0.025 -0.513,0.074 -0.158,0.048 -0.296,0.13 -0.415,0.244 -0.12,0.114 -0.215,0.255 -0.285,0.423 -0.071,0.168 -0.106,0.372 -0.106,0.61 l 0,19.161 c 0,0.109 0.035,0.204 0.106,0.285 0.07,0.082 0.19,0.15 0.358,0.204 0.168,0.054 0.391,0.095 0.667,0.122 0.277,0.027 0.617,0.04 1.018,0.04 0.423,0 0.771,-0.013 1.042,-0.04 0.272,-0.027 0.488,-0.068 0.651,-0.122 0.163,-0.054 0.277,-0.122 0.342,-0.204 0.065,-0.081 0.098,-0.176 0.098,-0.285 l 0,-7.276 2.653,0 c 1.573,0 2.83,-0.137 3.769,-0.408 0.938,-0.271 1.736,-0.672 2.393,-1.204 0.657,-0.532 1.166,-1.194 1.531,-1.987 0.363,-0.791 0.544,-1.687 0.544,-2.686" /></g><g
           transform="translate(359.1133,127.4521)"
           id="g52"><path
             id="path54"
             style="fill:#ee343b;fill-opacity:1;fill-rule:nonzero;stroke:none"
             d="m 0,0 c 0,-0.597 -0.104,-1.169 -0.31,-1.717 -0.206,-0.549 -0.54,-1.032 -1.001,-1.449 -0.461,-0.418 -1.069,-0.752 -1.823,-1.001 -0.755,-0.25 -1.679,-0.375 -2.776,-0.375 -1.064,0 -1.97,0.114 -2.719,0.342 -0.748,0.228 -1.359,0.54 -1.831,0.936 -0.472,0.396 -0.816,0.874 -1.033,1.433 -0.218,0.559 -0.326,1.169 -0.326,1.831 0,0.163 0.03,0.296 0.09,0.399 0.059,0.103 0.16,0.187 0.3,0.252 0.141,0.065 0.334,0.112 0.578,0.139 0.245,0.027 0.551,0.041 0.92,0.041 0.347,0 0.635,-0.017 0.863,-0.049 0.228,-0.033 0.401,-0.082 0.521,-0.147 0.119,-0.065 0.203,-0.149 0.252,-0.252 0.049,-0.104 0.073,-0.226 0.073,-0.366 0,-0.261 0.052,-0.505 0.156,-0.733 0.102,-0.228 0.254,-0.426 0.455,-0.594 0.201,-0.169 0.448,-0.307 0.741,-0.416 0.293,-0.108 0.618,-0.162 0.976,-0.162 0.348,0 0.663,0.051 0.945,0.155 0.282,0.103 0.523,0.238 0.724,0.406 0.201,0.169 0.353,0.369 0.455,0.603 0.104,0.233 0.156,0.491 0.156,0.773 0,0.13 0.021,0.244 0.065,0.342 0.043,0.098 0.127,0.179 0.252,0.244 0.125,0.065 0.293,0.114 0.505,0.147 0.211,0.032 0.479,0.049 0.806,0.049 0.39,0 0.714,-0.014 0.968,-0.041 C -0.763,0.763 -0.56,0.716 -0.407,0.651 -0.256,0.586 -0.149,0.502 -0.09,0.399 -0.03,0.296 0,0.163 0,0 m 2.49,-26.161 c 0,-0.109 -0.035,-0.203 -0.105,-0.285 -0.072,-0.081 -0.188,-0.149 -0.351,-0.203 -0.162,-0.055 -0.382,-0.095 -0.659,-0.122 -0.276,-0.027 -0.621,-0.041 -1.033,-0.041 -0.413,0 -0.757,0.014 -1.034,0.041 -0.277,0.027 -0.495,0.067 -0.652,0.122 -0.157,0.054 -0.268,0.122 -0.333,0.203 -0.065,0.082 -0.097,0.176 -0.097,0.285 l 0,11.103 c 0,0.423 0.004,0.838 0.015,1.245 0.011,0.407 0.028,0.768 0.049,1.083 l -0.032,0 c -0.087,-0.152 -0.191,-0.329 -0.31,-0.529 -0.119,-0.201 -0.247,-0.413 -0.383,-0.635 -0.135,-0.223 -0.279,-0.451 -0.43,-0.684 -0.153,-0.234 -0.305,-0.459 -0.456,-0.675 l -7.326,-10.924 c -0.087,-0.12 -0.176,-0.223 -0.269,-0.309 -0.092,-0.087 -0.211,-0.155 -0.357,-0.204 -0.147,-0.049 -0.327,-0.081 -0.539,-0.098 -0.21,-0.016 -0.485,-0.024 -0.821,-0.024 -0.424,0 -0.765,0.014 -1.026,0.041 -0.26,0.027 -0.464,0.067 -0.611,0.122 -0.146,0.054 -0.247,0.125 -0.3,0.212 -0.055,0.086 -0.082,0.189 -0.082,0.309 l 0,19.926 c 0,0.108 0.035,0.203 0.106,0.285 0.07,0.081 0.19,0.149 0.358,0.203 0.168,0.054 0.388,0.095 0.66,0.122 0.27,0.027 0.612,0.041 1.025,0.041 0.423,0 0.771,-0.014 1.042,-0.041 0.272,-0.027 0.488,-0.068 0.651,-0.122 0.163,-0.054 0.277,-0.122 0.342,-0.203 0.065,-0.082 0.098,-0.177 0.098,-0.285 l 0,-11.168 c 0,-0.347 -0.006,-0.716 -0.017,-1.107 -0.01,-0.391 -0.027,-0.771 -0.049,-1.14 l 0.033,0 c 0.184,0.326 0.418,0.717 0.7,1.173 0.282,0.455 0.575,0.901 0.879,1.335 l 7.326,10.923 c 0.076,0.108 0.157,0.204 0.244,0.285 0.087,0.081 0.203,0.149 0.35,0.203 0.146,0.054 0.328,0.093 0.546,0.115 0.216,0.021 0.493,0.032 0.83,0.032 0.412,0 0.746,-0.014 1.001,-0.041 0.255,-0.027 0.459,-0.068 0.61,-0.122 0.152,-0.054 0.258,-0.122 0.317,-0.203 0.06,-0.082 0.09,-0.182 0.09,-0.302 l 0,-19.942 z" /></g><g
           transform="translate(183.7104,70.041)"
           id="g56"><path
             id="path58"
             style="fill:#ee343b;fill-opacity:1;fill-rule:nonzero;stroke:none"
             d="M 0,0 C 0,0.488 -0.082,0.925 -0.244,1.311 -0.407,1.695 -0.646,2.019 -0.96,2.279 -1.275,2.54 -1.677,2.74 -2.165,2.882 -2.654,3.022 -3.289,3.093 -4.07,3.093 l -2.539,0 0,-5.99 3.092,0 c 0.598,0 1.1,0.062 1.506,0.186 0.407,0.125 0.76,0.31 1.059,0.554 0.298,0.244 0.531,0.548 0.7,0.912 C -0.084,-0.882 0,-0.467 0,0 m -1.091,9.019 c 0,0.423 -0.065,0.803 -0.195,1.139 -0.131,0.337 -0.326,0.616 -0.586,0.839 -0.261,0.222 -0.589,0.393 -0.985,0.513 -0.396,0.119 -0.925,0.178 -1.587,0.178 l -2.165,0 0,-5.469 2.393,0 c 0.618,0 1.112,0.073 1.481,0.219 0.369,0.147 0.675,0.348 0.92,0.603 0.244,0.255 0.426,0.554 0.545,0.896 0.12,0.341 0.179,0.702 0.179,1.082 M 4.444,0.146 C 4.444,-0.603 4.341,-1.28 4.135,-1.889 3.929,-2.496 3.644,-3.033 3.28,-3.5 2.917,-3.967 2.482,-4.368 1.978,-4.705 1.473,-5.041 0.917,-5.318 0.309,-5.535 -0.299,-5.752 -0.947,-5.912 -1.636,-6.016 -2.325,-6.118 -3.093,-6.17 -3.939,-6.17 l -5.601,0 c -0.358,0 -0.659,0.106 -0.903,0.317 -0.245,0.212 -0.367,0.556 -0.367,1.035 l 0,18.363 c 0,0.476 0.122,0.821 0.367,1.033 0.244,0.212 0.545,0.318 0.903,0.318 l 5.291,0 c 1.291,0 2.385,-0.109 3.28,-0.326 0.896,-0.217 1.65,-0.546 2.263,-0.985 C 1.907,13.146 2.377,12.589 2.702,11.917 3.028,11.243 3.191,10.451 3.191,9.54 3.191,9.029 3.125,8.549 2.996,8.099 2.865,7.648 2.675,7.238 2.426,6.87 2.176,6.501 1.869,6.175 1.506,5.894 1.142,5.61 0.727,5.383 0.26,5.209 0.857,5.101 1.408,4.911 1.913,4.64 2.417,4.368 2.857,4.019 3.231,3.59 3.606,3.161 3.901,2.659 4.119,2.084 4.335,1.509 4.444,0.863 4.444,0.146" /></g><g
           transform="translate(213.6157,64.4248)"
           id="g60"><path
             id="path62"
             style="fill:#ee343b;fill-opacity:1;fill-rule:nonzero;stroke:none"
             d="m 0,0 c 0,-0.108 -0.035,-0.204 -0.105,-0.285 -0.071,-0.081 -0.188,-0.15 -0.351,-0.203 -0.162,-0.055 -0.382,-0.095 -0.659,-0.122 -0.277,-0.028 -0.621,-0.041 -1.033,-0.041 -0.413,0 -0.755,0.013 -1.026,0.041 -0.272,0.027 -0.492,0.067 -0.659,0.122 -0.169,0.053 -0.288,0.122 -0.359,0.203 -0.071,0.081 -0.105,0.177 -0.105,0.285 l 0,19.958 c 0,0.108 0.034,0.204 0.105,0.285 0.071,0.081 0.19,0.15 0.359,0.204 0.167,0.054 0.39,0.095 0.667,0.122 0.277,0.027 0.616,0.04 1.018,0.04 0.412,0 0.756,-0.013 1.033,-0.04 0.277,-0.027 0.497,-0.068 0.659,-0.122 0.163,-0.054 0.28,-0.123 0.351,-0.204 C -0.035,20.162 0,20.066 0,19.958 L 0,0 Z m -11.249,6.039 c 0,0.522 -0.076,0.988 -0.228,1.4 -0.152,0.413 -0.385,0.766 -0.7,1.059 -0.315,0.293 -0.716,0.521 -1.204,0.684 -0.489,0.162 -1.211,0.244 -2.166,0.244 l -2.198,0 0,-6.692 2.264,0 c 0.998,0 1.75,0.101 2.254,0.302 0.505,0.2 0.898,0.461 1.181,0.781 0.281,0.321 0.485,0.676 0.61,1.067 0.124,0.39 0.187,0.775 0.187,1.155 m 4.395,0.358 C -6.854,5.399 -7.008,4.484 -7.317,3.654 -7.626,2.824 -8.112,2.1 -8.774,1.481 -9.437,0.862 -10.302,0.368 -11.371,0 c -1.069,-0.369 -2.526,-0.554 -4.371,-0.554 l -4.965,0 c -0.185,0 -0.356,0.025 -0.513,0.074 -0.157,0.048 -0.296,0.129 -0.415,0.244 -0.12,0.114 -0.215,0.255 -0.285,0.423 -0.071,0.168 -0.106,0.372 -0.106,0.611 l 0,19.16 c 0,0.108 0.035,0.204 0.106,0.285 0.07,0.081 0.19,0.15 0.358,0.204 0.168,0.054 0.391,0.095 0.667,0.122 0.277,0.027 0.616,0.04 1.018,0.04 0.423,0 0.771,-0.013 1.042,-0.04 0.271,-0.027 0.488,-0.068 0.651,-0.122 0.163,-0.054 0.277,-0.123 0.342,-0.204 0.065,-0.081 0.097,-0.177 0.097,-0.285 l 0,-7.276 2.654,0 c 1.574,0 2.83,-0.136 3.769,-0.408 0.939,-0.271 1.736,-0.672 2.393,-1.205 0.657,-0.531 1.166,-1.193 1.53,-1.985 0.364,-0.793 0.545,-1.688 0.545,-2.687" /></g><g
           transform="translate(229.1299,70.1221)"
           id="g64"><path
             id="path66"
             style="fill:#ee343b;fill-opacity:1;fill-rule:nonzero;stroke:none"
             d="m 0,0 c 0,0.467 -0.076,0.888 -0.228,1.262 -0.152,0.375 -0.375,0.694 -0.668,0.961 -0.292,0.265 -0.669,0.468 -1.13,0.61 -0.462,0.141 -1.078,0.212 -1.848,0.212 l -2.752,0 0,-6.072 2.801,0 c 0.694,0 1.266,0.064 1.717,0.195 0.45,0.13 0.828,0.325 1.131,0.586 0.304,0.261 0.543,0.58 0.716,0.96 C -0.087,-0.906 0,-0.478 0,0 M 4.347,0.277 C 4.347,-0.678 4.184,-1.552 3.858,-2.344 3.533,-3.137 3.042,-3.823 2.385,-4.403 1.729,-4.984 0.896,-5.437 -0.114,-5.763 -1.123,-6.088 -2.431,-6.251 -4.037,-6.251 l -5.552,0 c -0.39,0 -0.708,0.105 -0.952,0.317 -0.244,0.212 -0.366,0.573 -0.366,1.083 l 0,18.315 c 0,0.476 0.122,0.821 0.366,1.033 0.244,0.212 0.546,0.317 0.903,0.317 l 11.917,0 c 0.109,0 0.203,-0.027 0.285,-0.081 0.082,-0.054 0.152,-0.149 0.211,-0.285 0.06,-0.135 0.104,-0.309 0.131,-0.52 0.027,-0.212 0.04,-0.481 0.04,-0.807 0,-0.304 -0.013,-0.561 -0.04,-0.772 C 2.879,12.137 2.835,11.963 2.775,11.827 2.716,11.691 2.646,11.594 2.564,11.534 2.482,11.475 2.394,11.444 2.296,11.444 l -8.922,0 0,-5.241 3.501,0 c 1.356,0 2.474,-0.131 3.354,-0.391 C 1.107,5.552 1.851,5.166 2.458,4.656 3.066,4.146 3.533,3.522 3.858,2.784 4.184,2.046 4.347,1.21 4.347,0.277" /></g><g
           transform="translate(251.1895,74.4199)"
           id="g68"><path
             id="path70"
             style="fill:#ee343b;fill-opacity:1;fill-rule:nonzero;stroke:none"
             d="M 0,0 C 0,1.107 -0.087,2.114 -0.261,3.021 -0.435,3.926 -0.73,4.702 -1.148,5.348 -1.566,5.993 -2.122,6.493 -2.816,6.846 -3.512,7.198 -4.38,7.375 -5.422,7.375 -6.475,7.375 -7.354,7.177 -8.059,6.78 -8.765,6.385 -9.334,5.855 -9.769,5.193 c -0.433,-0.662 -0.74,-1.435 -0.919,-2.319 -0.179,-0.885 -0.268,-1.821 -0.268,-2.809 0,-1.15 0.086,-2.184 0.26,-3.101 0.174,-0.917 0.467,-1.701 0.879,-2.353 0.413,-0.65 0.965,-1.147 1.661,-1.489 0.694,-0.342 1.568,-0.513 2.621,-0.513 1.053,0 1.931,0.196 2.637,0.586 0.706,0.391 1.275,0.923 1.71,1.596 0.433,0.673 0.74,1.457 0.919,2.353 C -0.09,-1.961 0,-1.009 0,0 m 4.493,0.229 c 0,-1.749 -0.218,-3.311 -0.651,-4.689 -0.435,-1.379 -1.08,-2.548 -1.938,-3.509 -0.857,-0.96 -1.918,-1.692 -3.182,-2.197 -1.265,-0.505 -2.727,-0.757 -4.388,-0.757 -1.639,0 -3.068,0.214 -4.289,0.643 -1.221,0.428 -2.238,1.083 -3.053,1.962 -0.813,0.879 -1.425,1.997 -1.831,3.353 -0.407,1.357 -0.61,2.963 -0.61,4.819 0,1.704 0.217,3.237 0.65,4.599 0.435,1.361 1.08,2.521 1.938,3.476 0.857,0.954 1.918,1.687 3.182,2.197 1.265,0.51 2.733,0.766 4.404,0.766 1.595,0 3.004,-0.212 4.224,-0.636 C 0.171,9.833 1.19,9.182 2.01,8.303 2.829,7.424 3.448,6.313 3.866,4.974 4.283,3.633 4.493,2.052 4.493,0.229" /></g><g
           transform="translate(269.2266,78.2295)"
           id="g72"><path
             id="path74"
             style="fill:#ee343b;fill-opacity:1;fill-rule:nonzero;stroke:none"
             d="m 0,0 c 0,0.738 -0.13,1.346 -0.391,1.823 -0.26,0.478 -0.581,0.83 -0.961,1.059 -0.379,0.227 -0.778,0.371 -1.196,0.431 -0.418,0.059 -0.849,0.089 -1.294,0.089 l -1.823,0 0,-7.146 1.921,0 c 0.683,0 1.256,0.092 1.718,0.276 0.461,0.185 0.838,0.443 1.13,0.774 0.293,0.331 0.516,0.727 0.668,1.188 C -0.076,-1.045 0,-0.543 0,0 M 4.477,0.31 C 4.477,-0.874 4.292,-1.921 3.923,-2.833 3.555,-3.744 3.017,-4.512 2.312,-5.136 1.606,-5.761 0.74,-6.235 -0.285,-6.561 -1.311,-6.886 -2.518,-7.049 -3.907,-7.049 l -1.758,0 0,-6.723 c 0,-0.109 -0.035,-0.207 -0.106,-0.293 -0.071,-0.087 -0.187,-0.158 -0.35,-0.212 -0.163,-0.054 -0.38,-0.098 -0.651,-0.13 -0.272,-0.032 -0.619,-0.049 -1.042,-0.049 -0.413,0 -0.757,0.017 -1.034,0.049 -0.277,0.032 -0.497,0.076 -0.659,0.13 -0.163,0.054 -0.277,0.125 -0.342,0.212 -0.065,0.086 -0.098,0.184 -0.098,0.293 l 0,18.949 c 0,0.51 0.133,0.892 0.399,1.147 0.266,0.255 0.616,0.383 1.05,0.383 l 4.966,0 c 0.499,0 0.973,-0.019 1.424,-0.057 0.45,-0.038 0.99,-0.12 1.62,-0.244 C 0.141,6.281 0.778,6.051 1.425,5.714 2.07,5.378 2.621,4.951 3.077,4.437 3.532,3.921 3.88,3.318 4.119,2.629 4.357,1.939 4.477,1.167 4.477,0.31" /></g><g
           transform="translate(138.5803,98.6647)"
           id="g76"><path
             id="path78"
             style="fill:#009ad8;fill-opacity:1;fill-rule:nonzero;stroke:none"
             d="m 0,0 c 0,-14.316 -11.647,-25.922 -26.015,-25.922 -14.368,0 -26.017,11.606 -26.017,25.922 0,14.316 11.649,25.921 26.017,25.921 C -11.647,25.921 0,14.316 0,0" /></g><g
           transform="translate(117.3208,107.5992)"
           id="g80"><path
             id="path82"
             style="fill:#ffffff;fill-opacity:1;fill-rule:nonzero;stroke:none"
             d="m 0,0 c -0.42,-0.578 -1.05,-0.095 -1.05,-0.095 -1.452,0.098 -0.962,1.53 -0.962,1.53 -0.018,0.525 -1.12,0.997 -1.12,0.997 -0.7,0.228 -0.385,0.805 -0.385,0.805 -0.788,0.385 0,0.852 0,0.852 -0.018,0.696 0.91,0.95 0.91,0.95 0.595,0.28 0.945,-0.122 0.945,-0.122 C -1.4,4.549 -2.082,4.252 -2.082,4.252 -2.257,2.835 -1.225,3.114 -1.225,3.114 -0.735,3.254 -0.508,2.869 -0.508,2.869 -0.122,2.432 -0.665,2.1 -0.665,2.1 0.508,1.924 0.665,0.682 0.665,0.682 1.032,-0.175 0,0 0,0 m -7.008,0.708 c 0,0 -0.708,-0.315 -1.418,0.289 -0.708,0.604 -1.259,-0.708 -1.259,-0.708 0,0 -0.234,-0.571 -1.217,-0.32 -0.006,0.002 -0.012,0.003 -0.017,0.005 -0.997,0.262 -0.551,0.761 -0.315,1.417 0,0 0.053,2.021 1.418,1.811 0,0 0.982,-0.835 1.155,-0.315 0,0 0.104,0.813 0.603,0.813 0,0 0.788,0.552 0.998,0.342 0,0 0.236,-0.32 -0.263,-0.554 0,0 0.263,-0.365 0,-0.601 -0.262,-0.236 -0.105,-0.158 -0.105,-0.158 0,0 0.814,-0.025 0.893,-0.42 0,0 1.181,-0.157 1.181,-0.682 0,0 0.236,-0.997 -1.654,-0.919 m -9.557,-3.552 c 0.266,-0.125 0.567,0.115 0.567,0.115 0,0 0.455,0.35 -0.035,0.98 0,0 0.262,0.455 -0.21,0.822 0,0 -0.665,-0.192 -0.788,0.735 0,0 -0.665,0.648 -0.105,1.207 0,0 0.676,0.422 1.015,-0.823 0.006,-0.023 0.012,-0.046 0.017,-0.069 0.333,-1.33 1.435,-0.683 1.191,-1.365 0,0 -0.35,-0.805 0.874,-1.609 0,0 0.595,-0.315 0.701,0.402 0,0 -0.823,0.962 -0.228,1.05 0,0 0.682,-0.14 0.612,0.437 0,0 0.403,0.455 0.665,-0.175 0,0 0.665,-0.28 0.438,-0.91 0,0 -0.368,-0.367 0.14,-0.332 0,0 0.752,0.227 0.892,-0.91 0,0 0.385,-0.525 0.665,0.455 0,0 0.402,0.56 0.805,-0.263 0,0 0.438,-0.752 0.928,0.578 0,0 0.315,-0.385 0.682,0.052 0,0 0.455,-1.189 0.105,-1.854 0,0 -0.253,-0.458 -0.158,-1.088 0.005,-0.034 0.011,-0.068 0.018,-0.102 0.14,-0.683 -0.647,-0.98 -1.54,-0.332 0,0 -0.632,0.358 -1.221,-0.612 -0.008,-0.012 -0.015,-0.024 -0.022,-0.036 -0.594,-1.015 -1.172,0.349 -1.784,0.122 0,0 -0.578,-0.262 -1.137,0.613 0,0 -0.316,0.402 -0.858,0.052 0,0 -0.665,-0.367 -0.437,-1.015 0,0 0.087,-0.63 -0.403,-0.682 0,0 -0.402,-0.14 -0.63,0.438 0,0 -0.123,0.349 -0.804,0.262 0,0 -0.368,1.032 -1.61,0.77 0,0 -1.05,-0.07 -0.473,0.874 0,0 0.402,0.333 0.175,0.823 0,0 0.367,0.962 -0.682,0.665 0,0 -2.301,0.411 -3.483,-1.19 0,0 -0.944,0.866 -1.312,0.158 0,0 -1.916,-0.604 -1.365,-2.362 0,0 0.263,-0.736 -0.892,-0.788 0,0 -1.995,-0.49 -0.98,-3.57 0,0 0.42,-1.085 -0.14,-2.345 0,0 -0.297,-4.427 3.115,-6.159 0,0 1.364,-0.026 1.627,-0.577 0,0 1.811,1.286 2.703,-0.341 0,0 3.255,-0.184 2.284,-3.176 0,0 2.966,-2.52 3.202,-3.281 0,0 1.489,-1.076 0.744,-1.628 0,0 -0.56,-1.285 1.618,-2.125 0,0 1.295,-0.246 1.4,-1.225 0,0 2.905,-1.033 2.922,-1.366 l 3.054,0 c 0,0 2.099,0.543 1.863,1.331 0,0 -0.158,0.63 0.893,0.63 0,0 -0.971,1.259 0.078,1.653 0,0 0.604,1.024 1.444,0.709 0,0 1.496,-0.027 0.184,2.284 0,0 -1.172,0.398 -0.867,1.341 0.008,0.025 0.017,0.05 0.027,0.076 0.394,0.997 -1.076,-0.237 -0.525,0.892 0,0 -0.132,1.549 1.128,1.575 0,0 0.893,2.021 1.969,2.52 1.076,0.498 2.257,4.593 1.863,5.643 0,0 -1.225,-0.928 -1.994,-0.945 0,0 -0.787,-0.822 -1.26,-0.648 0,0 -1.4,-0.577 -1.173,0.805 0,0 0.403,0.875 1.348,0.875 0,0 1.172,-0.017 1.469,1.12 0.298,1.137 1.453,1.085 1.453,1.085 0,0 0.193,1.4 1.259,1.417 0,0 -0.052,0.683 0.613,0.683 0,0 -0.122,0.875 0.49,0.98 0,0 -0.542,0.594 0.07,0.787 0,0 0.7,0.193 0.263,1.207 0,0 -0.666,0.035 -0.683,0.561 0,0 -1.347,-0.613 -1.627,0.682 0,0 -0.683,0.507 -0.192,0.979 0,0 0.524,0.351 0.839,-0.559 0,0 2.52,-0.105 3.71,1.417 0,0 0.796,-0.394 1.032,-0.84 0,0 0.866,-0.394 1.286,0.131 0,0 -0.157,-1.023 0.735,-0.525 0,0 0.604,0.447 0.735,-0.42 0,0 0.42,-1.377 1.116,-2.112 0,0 0.813,-0.486 0.8,-1.221 0,0 1.044,-0.712 1.184,-1.412 0.004,-0.024 0.007,-0.047 0.01,-0.071 0.079,-0.722 0.696,-0.394 0.591,0.302 0,0 -0.144,0.814 0.118,1.103 0,0 -0.367,0.619 -0.132,1.312 0.005,0.013 0.009,0.026 0.014,0.039 0.262,0.709 -0.696,0.906 -0.092,2.165 0,0 0.774,1.838 0.21,3.15 0,0 0.898,0.367 0.206,1.549 0,0 1.88,-0.945 2.117,-2.625 0,0 0.309,0.451 0.271,1.105 -0.002,0.033 -0.005,0.068 -0.009,0.103 0,0 0.315,-1.064 0.867,-1.273 0,0 0.669,-0.289 0.773,-0.591 0,0 0.224,2.178 -1.141,3.687 0,0 -0.7,0.661 -0.647,2.131 0,0 -0.288,2.03 -1.194,3.001 0,0 -5.43,9.134 -16.663,11.235 0,0 -2.021,0.112 -1.986,-0.623 0,0 -1.82,0.525 -1.925,-0.175 0,0 -0.245,-0.385 0.49,-0.35 0,0 -0.91,-0.14 -0.735,-0.735 0,0 -0.717,0.175 -0.936,0 0,0 -0.288,-0.56 0.936,-0.595 0,0 0.543,-0.122 0.473,-0.35 0,0 -0.123,-0.244 -0.665,0 0,0 -1.173,0.315 -0.928,-0.332 0,0 -0.507,-0.018 -0.454,-0.227 l -0.246,0 -0.157,-0.298 c 0,0 -0.56,0.525 -1.243,-0.63 0,0 -0.577,-0.21 -0.559,0.262 0,0 -0.246,-0.49 0.14,-0.647 0,0 -0.858,0.245 -0.788,-0.612 0,0 -0.56,-0.105 -0.542,-0.385 0,0 -0.753,-0.175 -0.84,0.367 0,0 0.14,0.333 -0.14,0.263 0,0 -0.35,0.192 0.21,0.28 0,0 1.19,0.105 1.26,0.367 l -0.823,0.123 0.035,0.157 c 0,0 -0.927,-0.21 -1.469,0.245 0,0 -0.377,0.219 -0.622,-0.21 0,0 -0.262,-0.481 -1.023,-0.464 l -0.963,-0.743 c 0,0 -0.244,0.035 -0.525,-0.333 l -1.469,-1.242 c 0,0 -0.736,-0.018 -0.945,-0.612 l -0.403,-0.246 0.28,-0.14 c 0,0 -0.63,-0.524 -0.385,-0.822 0,0 0.28,-0.314 1.05,0.648 l 0.123,-0.697 c 0,0 0.07,-1.053 -0.017,-1.071 0,0 0.996,0.438 1.259,1.925 0,0 0.682,-0.192 0.42,0.438 0,0 -0.175,0.419 0.28,0.63 0,0 0.49,0.104 0.595,0.419 0,0 0.192,-0.052 0.297,0.386 0,0 0.578,1.067 1.015,0.437 0,0 0.315,-0.245 -0.595,-0.735 0,0 -1.015,-0.403 -0.437,-1.172 0,0 0.332,-0.28 1.032,0.262 0,0 0.665,0.403 0.945,-0.193 0,0 -0.56,0.053 -0.56,-0.332 0,0 -0.962,0.105 -0.98,-0.718 0,0 0.018,-0.542 -0.56,-0.227 0,0 -0.553,0.319 -0.527,-1.031 0,-0.029 10e-4,-0.059 0.003,-0.089 0,0 -0.63,0.07 -0.63,-0.42 0,0 -0.561,0.525 -1.435,-0.315 l -0.403,0.228 -0.385,-0.35 c 0,0 -0.533,0.017 -0.546,0.577 l -0.136,-0.875 c 0,0 -0.963,0.526 -1.908,-0.98 0,0 -0.647,-0.14 -0.647,-0.594 0,0 -0.437,-0.018 -0.437,-0.28 0,0 -0.342,-0.171 -0.46,0.21 l -0.092,-0.499 c 0,0 -0.761,0.223 -0.879,-0.197 0,0 -0.158,-0.223 0.394,-0.315 0,0 0.485,-1.561 -0.722,-2.204 0,0 -0.853,0.734 -1.548,0.367 0,0 -0.276,-0.118 -0.118,-0.735 0,0 0.153,-0.844 -0.67,-1.264 0,0 -0.734,-0.56 0,-1.19 0,0 0.49,-0.21 0.368,-0.455 0,0 0.35,0.07 0.717,0 0,0 1.12,0.087 1.085,1.312 0,0 0.105,1.068 1.033,1.033 0,0 0.49,-0.071 0.49,0.717 0,0 0.133,0.688 0.83,0.157 0.014,-0.011 0.029,-0.023 0.044,-0.034 0.735,-0.596 0.893,0.437 0.927,0.769 0,0 0.036,0.316 0.315,0.298 0,0 0.455,0.07 0.193,-0.928 0,0 -0.315,-0.454 0.927,-1.014 0,0 0.858,-0.28 0.823,-1.05 -0.54,-0.134 -0.217,-0.465 -0.217,-0.465" /></g><g
           transform="translate(121.6472,142.8266)"
           id="g84"><path
             id="path86"
             style="fill:#009ad8;fill-opacity:1;fill-rule:nonzero;stroke:none"
             d="m 0,0 c 0,-4.369 -3.533,-7.911 -7.891,-7.911 -4.359,0 -7.892,3.542 -7.892,7.911 0,4.369 3.533,7.911 7.892,7.911 C -3.533,7.911 0,4.369 0,0" /></g><g
           transform="translate(163.5131,97.7693)"
           id="g88"><path
             id="path90"
             style="fill:#009ad8;fill-opacity:1;fill-rule:nonzero;stroke:none"
             d="m 0,0 c 0,-4.369 -3.533,-7.911 -7.891,-7.911 -4.359,0 -7.892,3.542 -7.892,7.911 0,4.369 3.533,7.911 7.892,7.911 C -3.533,7.911 0,4.369 0,0" /></g><g
           transform="translate(145.6699,97.7693)"
           id="g92"><path
             id="path94"
             style="fill:#ee343b;fill-opacity:1;fill-rule:nonzero;stroke:none"
             d="M 0,0 C 0,3.686 1.987,6.9 4.94,8.647 3.556,15.478 0.408,21.662 -4.012,26.692 l -6.343,-6.205 c 4.516,-5.285 7.253,-12.155 7.253,-19.673 0,-7.335 -2.601,-14.058 -6.923,-19.289 l 6.343,-6.205 c 3.94,4.601 6.829,10.135 8.305,16.226 C 1.845,-6.668 0,-3.553 0,0" /></g><g
           transform="translate(121.5734,136.6033)"
           id="g96"><path
             id="path98"
             style="fill:#ee343b;fill-opacity:1;fill-rule:nonzero;stroke:none"
             d="m 0,0 c -1.835,-2.325 -4.668,-3.821 -7.855,-3.821 -3.375,0 -6.353,1.678 -8.168,4.241 -7.299,-1.342 -13.886,-4.73 -19.147,-9.561 l 6.353,-6.215 c 5.285,4.683 12.216,7.529 19.811,7.529 7.727,0 14.77,-2.941 20.088,-7.77 l 6.341,6.202 C 12.596,-4.879 6.627,-1.586 0,0" /></g><g
           transform="translate(114.9126,65.5375)"
           id="g100"><path
             id="path102"
             style="fill:#ee343b;fill-opacity:1;fill-rule:nonzero;stroke:none"
             d="m 0,0 c 3.497,0 6.571,-1.798 8.364,-4.52 6.111,1.765 11.607,4.992 16.084,9.29 l -6.337,6.199 C 12.752,5.937 5.563,2.853 -2.345,2.853 c -7.777,0 -14.862,2.978 -20.192,7.863 L -28.874,4.517 C -23.447,-0.597 -16.56,-4.155 -8.912,-5.469 -7.251,-2.224 -3.888,0 0,0" /></g><g
           transform="translate(90.0594,118.5341)"
           id="g104"><path
             id="path106"
             style="fill:#ee343b;fill-opacity:1;fill-rule:nonzero;stroke:none"
             d="m 0,0 -6.343,6.205 c -4.553,-5.084 -7.792,-11.379 -9.198,-18.344 2.934,-1.752 4.906,-4.954 4.906,-8.626 0,-3.539 -1.83,-6.644 -4.589,-8.433 1.504,-6.223 4.484,-11.864 8.551,-16.525 l 6.343,6.205 c -4.463,5.271 -7.162,12.1 -7.162,19.567 0,7.65 2.832,14.63 7.492,19.951" /></g><g
           transform="translate(122.7363,55.493)"
           id="g108"><path
             id="path110"
             style="fill:#009ad8;fill-opacity:1;fill-rule:nonzero;stroke:none"
             d="m 0,0 c 0,-4.369 -3.533,-7.911 -7.891,-7.911 -4.359,0 -7.892,3.542 -7.892,7.911 0,4.369 3.533,7.911 7.892,7.911 C -3.533,7.911 0,4.369 0,0" /></g><g
           transform="translate(77.2283,97.7693)"
           id="g112"><path
             id="path114"
             style="fill:#009ad8;fill-opacity:1;fill-rule:nonzero;stroke:none"
             d="m 0,0 c 0,-4.369 -3.533,-7.911 -7.891,-7.911 -4.359,0 -7.892,3.542 -7.892,7.911 0,4.369 3.533,7.911 7.892,7.911 C -3.533,7.911 0,4.369 0,0" /></g></g></g></g></svg>