<?xml version="1.0" ?><!DOCTYPE svg  PUBLIC '-//W3C//DTD SVG 1.1//EN'  'http://www.w3.org/Graphics/SVG/1.1/DTD/svg11.dtd'><svg height="43.3492mm" style="shape-rendering:geometricPrecision; text-rendering:geometricPrecision; image-rendering:optimizeQuality; fill-rule:evenodd; clip-rule:evenodd" version="1.1" viewBox="0 0 4335 4335" width="43.3492mm" xml:space="preserve" xmlns="http://www.w3.org/2000/svg" xmlns:xlink="http://www.w3.org/1999/xlink"><defs><style type="text/css">
   <![CDATA[
    .fil0 {fill:#9E6F4F}
    .fil1 {fill:#FFFEFE}
   ]]>
  </style></defs><g id="Layer_x0020_1"><g id="_685663304"><path class="fil0" d="M732 17l2867 0c385,0 700,315 700,700l0 2867c0,385 -315,700 -700,700l-2867 0c-385,0 -700,-315 -700,-700l0 -2867c0,-385 315,-700 700,-700z"/><path class="fil1" d="M2119 1729c246,-30 440,156 465,372 30,250 -155,443 -369,468 -247,29 -449,-154 -472,-371 -26,-254 154,-442 375,-469zm695 141l483 -4 0 637c0,202 11,439 0,637 -6,104 -70,142 -177,142l-1902 0c-108,0 -177,-30 -186,-133 -11,-128 -2,-1080 -1,-1283l483 0c-189,365 72,989 650,990 559,1 844,-601 650,-987zm58 -854l425 0 0 390 -1 35 -424 0 0 -425zm-1871 -279c-102,11 -177,73 -216,140 -50,87 -36,211 -36,317 0,185 -8,2031 2,2121 11,102 73,176 138,214 88,52 206,38 319,38 179,0 2039,8 2123,-3 103,-12 176,-76 213,-141 51,-90 38,-206 38,-319 0,-179 8,-2040 -3,-2123 -12,-97 -76,-176 -143,-211 -88,-46 -208,-36 -317,-36 -181,0 -2032,-8 -2118,2z"/></g></g></svg>