<?xml version="1.0" ?><!DOCTYPE svg  PUBLIC '-//W3C//DTD SVG 1.1//EN'  'http://www.w3.org/Graphics/SVG/1.1/DTD/svg11.dtd'><svg height="43.3492mm" style="shape-rendering:geometricPrecision; text-rendering:geometricPrecision; image-rendering:optimizeQuality; fill-rule:evenodd; clip-rule:evenodd" version="1.1" viewBox="0 0 4335 4335" width="43.3492mm" xml:space="preserve" xmlns="http://www.w3.org/2000/svg" xmlns:xlink="http://www.w3.org/1999/xlink"><defs><style type="text/css">
   <![CDATA[
    .fil0 {fill:#356396}
    .fil1 {fill:#FEFEFE;fill-rule:nonzero}
   ]]>
  </style></defs><g id="Layer_x0020_1"><g id="_680639056"><path class="fil0" d="M736 18l2884 0c387,0 704,317 704,704l0 2884c0,387 -317,704 -704,704l-2884 0c-387,0 -704,-317 -704,-704l0 -2884c0,-387 317,-704 704,-704z"/><path class="fil1" d="M2960 2542c0,97 -18,182 -55,256 -37,73 -86,134 -148,182 -74,57 -155,99 -242,123 -88,25 -200,37 -336,37l-783 0 0 -1954 691 0c144,0 253,5 326,17 74,11 144,34 209,69 70,38 122,88 157,151 35,63 52,136 52,218 0,95 -24,180 -72,254 -47,74 -114,129 -198,164l0 11c121,26 217,77 289,155 73,78 109,184 109,317zm-629 -804c0,-31 -8,-64 -24,-97 -16,-33 -41,-57 -76,-72 -32,-14 -70,-22 -115,-23 -44,-1 -110,-2 -198,-2l-34 0 0 414 62 0c84,0 142,-1 176,-3 34,-2 68,-11 104,-28 39,-18 66,-43 81,-76 15,-32 22,-70 22,-113zm124 796c0,-61 -12,-107 -37,-142 -25,-34 -61,-60 -110,-77 -30,-12 -71,-18 -123,-19 -52,-1 -122,-2 -210,-2l-90 0 0 489 26 0c128,0 216,-1 265,-3 49,-2 99,-13 150,-35 44,-19 77,-47 98,-85 21,-37 31,-79 31,-126z"/></g></g></svg>