<?xml version="1.0" ?><svg height="24px" version="1.1" viewBox="0 0 24 24" width="24px" xmlns="http://www.w3.org/2000/svg" xmlns:sketch="http://www.bohemiancoding.com/sketch/ns" xmlns:xlink="http://www.w3.org/1999/xlink"><title/><defs/><g fill="none" fill-rule="evenodd" id="Page-1" stroke="none" stroke-width="1"><g id="youtube_video_social"><path d="M19.6157699,11 L4.38395747,11 C1.96244931,11 0,12.8218232 0,15.2755363 L0,19.5564827 C0,22.0099253 1.96244931,24 4.38395747,24 L19.6157699,24 C22.0367329,24 24,22.0101958 24,19.5564827 L24,15.3093489 C24,12.8556358 22.0367329,11 19.6157699,11 L19.6157699,11 Z" fill="#E74C3C" id="Shape"/><path d="M7.37094721,14.6649266 L5.90226093,14.6649266 L5.90226093,21.4522604 L4.48250258,21.4522604 L4.48250258,14.6649266 L3.01409912,14.6649266 L3.01409912,13.5098877 L7.37094721,13.5098877 L7.37094721,14.6649266 Z M11.133024,21.7421787 L9.87362484,21.7421787 L9.87362484,21.1000327 C9.63973237,21.3376834 9.39905222,21.5186893 9.14649362,21.641248 C8.89506629,21.7686988 8.65155794,21.8289483 8.41483727,21.8289483 C8.12240099,21.8289483 7.90547775,21.7421787 7.75614858,21.5665799 C7.61021326,21.3912385 7.53498304,21.1319598 7.53498304,20.781277 L7.53498304,15.8822747 L8.79438223,15.8822747 L8.79438223,20.3778116 C8.79438223,20.5163339 8.82181581,20.6164922 8.87244066,20.6775141 C8.92702499,20.7416257 9.01328521,20.7707205 9.13150414,20.7707205 C9.22228948,20.7707205 9.34079122,20.7302967 9.48220142,20.6481618 C9.62530853,20.5652544 9.75455745,20.4604615 9.8730592,20.3332682 L9.8730592,15.8822747 L11.1324584,15.8822747 L11.1324584,21.7421787 L11.133024,21.7421787 Z M16.4101697,20.3713747 C16.4101697,20.7851392 16.3117482,21.1031225 16.1140567,21.3253245 C15.9177794,21.5470117 15.6309995,21.8173618 15.2582422,21.8173618 C15.0102087,21.8173618 14.4372146,21.7759081 14.2454624,21.689911 C14.0528617,21.6052013 13.871291,21.4741459 13.7069724,21.29314 L13.7069724,21.7419213 L12.4334322,21.7419213 L12.4334322,13.6386259 L13.7069724,13.6386259 L13.7069724,16.357576 C13.8775131,16.1804323 14.0576697,16.0437124 14.2463109,15.9512784 C14.4389116,15.857042 14.9856034,15.8117262 15.1813151,15.8117262 C15.5803746,15.8117262 15.8846894,15.7741346 16.0945421,16.0241442 C16.3055261,16.2741537 16.4098868,16.6400276 16.4098868,17.119706 L16.4098868,20.3713747 L16.4101697,20.3713747 Z M20.9910115,18.8566414 L18.5816646,18.8566414 L18.5816646,19.9606999 C18.5816646,20.2688991 18.6218251,20.482862 18.7044087,20.6025885 C18.7886891,20.7225724 18.930665,20.7807621 19.1314674,20.7807621 C19.3407545,20.7807621 19.486407,20.7300392 19.5698391,20.628851 C19.6515741,20.5268904 19.6951285,20.3054608 19.6951285,19.9604425 L19.6951285,19.693697 L20.9912943,19.693697 L20.9912943,19.9944293 C20.9912943,20.5948642 20.8346118,21.0475076 20.5161561,21.3528745 C20.2022254,21.6546368 19.7307639,21.8055179 19.1026198,21.8055179 C18.5381103,21.8055179 18.0932338,21.6453676 17.7696873,21.3227498 C17.447272,21.0032216 17.2829534,20.559075 17.2829534,19.9944293 L17.2829534,17.3622487 C17.2829534,16.8557927 17.4616959,16.439196 17.818898,16.1196679 C18.1755345,15.8001397 18.6325723,15.6407619 19.1976474,15.6407619 C19.774601,15.6407619 20.2177806,15.7888108 20.5274689,16.0849086 C20.8368744,16.3817788 20.9915771,16.8071297 20.9915771,17.3625062 L20.9915771,18.8566414 L20.9910115,18.8566414 Z M19.1433459,16.6655177 C18.9419778,16.6655177 18.7997191,16.7183004 18.711762,16.8277278 C18.6232392,16.9302034 18.5816646,17.1068322 18.5816646,17.3527221 L18.5816646,17.9449177 L19.6951285,17.9449177 L19.6951285,17.3527221 C19.6951285,17.1068322 19.65016,16.9302034 19.5622029,16.8277278 C19.4767911,16.7183004 19.3348153,16.6655177 19.1433459,16.6655177 Z M14.2341496,16.7422457 C14.1444955,16.7422457 14.0545586,16.7600115 13.9668843,16.7988905 C13.87921,16.836482 13.7929498,16.8980189 13.7072552,16.978094 L13.7072552,20.6285936 C13.8085049,20.7228299 13.9089061,20.7954382 14.0059135,20.8371494 C14.1032038,20.8775732 14.2030394,20.9002311 14.3096626,20.9002311 C14.4646482,20.9002311 14.9307362,20.8587774 15.0034211,20.7748401 C15.0749746,20.6919327 15.1123069,20.559075 15.1123069,20.3716322 L15.1123069,17.3447403 C15.1123069,17.1459686 15.0693182,16.9966323 14.979947,16.8941567 C14.8883132,16.793226 14.403559,16.7422457 14.2341496,16.7422457 Z" fill="#ECF0F1" id="youtube"/><path d="M15.9784796,10 C16.2414757,10 16.5122974,9.9245921 16.7912241,9.77928052 C17.0723868,9.63204246 17.3415316,9.416552 17.5975405,9.13528602 L17.5975405,9.89899744 L19,9.89899744 L19,3 L17.5975405,3 L17.5975405,8.23727148 C17.4678591,8.38726165 17.3230855,8.51028111 17.1665735,8.60825634 C17.0083846,8.70513073 16.8775852,8.7530175 16.7747345,8.7530175 C16.6433762,8.7530175 16.5472331,8.7166896 16.490218,8.64238254 C16.431526,8.56972675 16.3993851,8.45193631 16.3993851,8.28983684 L16.3993851,3 L15,3 L15,8.76622764 C15,9.17739336 15.0827278,9.4848044 15.2453885,9.68846078 C15.4102851,9.89514449 15.6525992,10 15.9784796,10 Z M11.9896928,10 C12.615818,10 13.1072631,9.83733293 13.465952,9.51332776 C13.8216175,9.18719623 14,8.74251974 14,8.17212181 L14,4.72926792 C14,4.2223952 13.8174947,3.80456409 13.4555075,3.4826853 C13.0896722,3.16160389 12.6226895,3 12.0520855,3 C11.4259603,3 10.9262695,3.15283262 10.5557617,3.45849787 C10.1852539,3.76416312 10,4.17375456 10,4.6917907 L10,8.14580802 C10,8.71248481 10.1808562,9.16088244 10.5420188,9.49684842 C10.9037312,9.83148542 11.3863808,10 11.9896928,10 Z M11.5002334,4.51872627 C11.5002334,4.36404329 11.5450408,4.23967364 11.6332555,4.14221769 C11.7235706,4.04674486 11.8390898,4 11.9816803,4 C12.1368728,4 12.2619603,4.04674486 12.3574096,4.14221769 C12.4523921,4.23967364 12.5,4.36404329 12.5,4.51872627 L12.5,8.38806731 C12.5,8.57787977 12.4530922,8.72831322 12.3592765,8.83738455 C12.2656943,8.94645589 12.14014,9 11.9814469,9 C11.8269545,9 11.7074679,8.9481557 11.6246208,8.83936767 C11.5417736,8.73256275 11.5,8.58326251 11.5,8.38806731 L11.5,4.51872627 L11.5002334,4.51872627 Z M6.77517292,10 L8.26548392,10 L8.26548392,5.52659368 L10,0 L8.4854005,0 L7.56296531,3.77535708 L7.46924336,3.77535708 L6.50139923,9.87248841e-16 L5,9.87248841e-16 L6.77490892,5.70249541 L6.77490892,10 L6.77517292,10 Z" fill="#2C3E50" id="Path"/></g></g></svg>